<?xml version="1.0" encoding="UTF-8" standalone="no"?>
<svg
   xmlns:dc="http://purl.org/dc/elements/1.1/"
   xmlns:cc="http://creativecommons.org/ns#"
   xmlns:rdf="http://www.w3.org/1999/02/22-rdf-syntax-ns#"
   xmlns:svg="http://www.w3.org/2000/svg"
   xmlns="http://www.w3.org/2000/svg"
   xmlns:sodipodi="http://sodipodi.sourceforge.net/DTD/sodipodi-0.dtd"
   xmlns:inkscape="http://www.inkscape.org/namespaces/inkscape"
   sodipodi:docname="logosvg.svg"
   width="210mm"
   height="297mm"
   viewBox="0 0 210 297"
   version="1.1"
   id="svg8"
   inkscape:export-filename="/mnt/Files/CPS/Fatec/3 Semestre/5-ILP540/Projetos/ProjetoGrupo1/site/images/logo.png"
   inkscape:export-xdpi="96"
   inkscape:export-ydpi="96"
   inkscape:version="1.0.2 (e86c870879, 2021-01-15)">
  <defs
     id="defs2">
    <inkscape:path-effect
       effect="perspective-envelope"
       up_left_point="76.917172,225.80584"
       up_right_point="162.11977,220.87842"
       down_left_point="76.917172,240.59986"
       down_right_point="162.11977,245.52728"
       id="path-effect1778"
       is_visible="true"
       lpeversion="1"
       deform_type="perspective"
       horizontal_mirror="true"
       vertical_mirror="false"
       overflow_perspective="false" />
  </defs>
  <sodipodi:namedview
     id="base"
     pagecolor="#ffffff"
     bordercolor="#666666"
     borderopacity="1.0"
     inkscape:pageopacity="0.0"
     inkscape:pageshadow="2"
     inkscape:zoom="0.94880682"
     inkscape:cx="278.27378"
     inkscape:cy="629.41269"
     inkscape:document-units="mm"
     inkscape:current-layer="layer1"
     inkscape:document-rotation="0"
     showgrid="false"
     showguides="true"
     inkscape:guide-bbox="true"
     inkscape:window-width="1600"
     inkscape:window-height="840"
     inkscape:window-x="0"
     inkscape:window-y="36"
     inkscape:window-maximized="1"
     inkscape:snap-global="false" />
  <metadata
     id="metadata5">
    <rdf:RDF>
      <cc:Work
         rdf:about="">
        <dc:format>image/svg+xml</dc:format>
        <dc:type
           rdf:resource="http://purl.org/dc/dcmitype/StillImage" />
      </cc:Work>
    </rdf:RDF>
  </metadata>
  <g
     inkscape:label="Layer 1"
     inkscape:groupmode="layer"
     id="layer1">
    <circle
       style="fill:#0b0030;stroke-width:1.73647;stroke-opacity:0.184314;fill-opacity:1"
       id="path835"
       cx="106.58223"
       cy="79.783287"
       r="30" />
    <circle
       style="fill:#3a0552;fill-opacity:1;stroke-width:1.54179;stroke-opacity:0.184314"
       id="circle837"
       cx="106.58223"
       cy="79.783287"
       r="26.63666" />
    <text
       xml:space="preserve"
       style="font-style:normal;font-weight:normal;font-size:5.29167px;line-height:1.25;font-family:sans-serif;letter-spacing:0px;word-spacing:0px;fill:#ffffff;fill-opacity:1;stroke:none;stroke-width:0.119697"
       x="106.6675"
       y="74.642769"
       id="text841"><tspan
         sodipodi:role="line"
         id="tspan839"
         x="106.6675"
         y="74.642769"
         style="font-style:normal;font-variant:normal;font-weight:normal;font-stretch:normal;font-size:5.29167px;font-family:monospace;-inkscape-font-specification:monospace;text-align:center;text-anchor:middle;fill:#ffffff;stroke-width:0.119697">Desenvolvedores</tspan><tspan
         sodipodi:role="line"
         x="106.6675"
         y="81.257355"
         style="font-style:normal;font-variant:normal;font-weight:normal;font-stretch:normal;font-size:5.29167px;font-family:monospace;-inkscape-font-specification:monospace;text-align:center;text-anchor:middle;fill:#ffffff;stroke-width:0.119697"
         id="tspan843">Web </tspan><tspan
         sodipodi:role="line"
         x="106.6675"
         y="87.871941"
         style="font-style:normal;font-variant:normal;font-weight:normal;font-stretch:normal;font-size:5.29167px;font-family:monospace;-inkscape-font-specification:monospace;text-align:center;text-anchor:middle;fill:#ffffff;stroke-width:0.119697"
         id="tspan845">Deprimidos</tspan></text>
    <path
       style="fill:#0b0030;fill-opacity:1;stroke:#000000;stroke-width:3.15497;stroke-linecap:butt;stroke-linejoin:miter;stroke-miterlimit:4;stroke-dasharray:none;stroke-opacity:1"
       d="m 89.406942,126.42777 -58.881926,17.61755 c 0,0 -4.365573,8.37333 -4.603425,17.32153 -0.186075,7.00031 3.433173,14.5521 3.433173,14.5521 l 59.22548,10.86736 27.663466,-9.42304 0.67914,-45.89633 z"
       id="path851"
       sodipodi:nodetypes="ccsccccc"
       inkscape:export-xdpi="96"
       inkscape:export-ydpi="96" />
    <path
       style="fill:#3a0552;fill-opacity:1;stroke:#000000;stroke-width:3.15497;stroke-linecap:butt;stroke-linejoin:miter;stroke-miterlimit:4;stroke-dasharray:none;stroke-opacity:1"
       d="m 89.40694,126.42777 c 0,0 -17.58381,8.13579 -17.108754,32.49976 0.475056,24.36397 16.282058,27.85878 16.282058,27.85878 0,0 5.957892,1.54605 17.064756,-2.78199 11.10686,-4.32804 11.19595,-6.77662 11.19595,-6.77662 0,0 5.95157,-3.39601 6.28429,-21.85194 0.3327,-18.45594 -6.20239,-23.90882 -6.20239,-23.90882 0,0 -3.04145,-5.41286 -12.94883,-5.72101 -12.556491,-0.39053 -14.56708,0.68184 -14.56708,0.68184 z"
       id="path853"
       sodipodi:nodetypes="czczczcsc"
       inkscape:export-xdpi="96"
       inkscape:export-ydpi="96" />
    <g
       aria-label="Desenvolvedores
Web 
Deprimidos"
       id="text1656"
       style="font-style:normal;font-weight:normal;font-size:10.5833px;line-height:1.25;font-family:sans-serif;letter-spacing:0px;word-spacing:0px;fill:#ffffff;fill-opacity:1;stroke:none;stroke-width:0.264583"
       transform="matrix(0.45068441,0,0,1,-3.5699847,-71.835062)"
       inkscape:path-effect="#path-effect1778"
       inkscape:export-xdpi="96"
       inkscape:export-ydpi="96">
      <path
         d="m 77.515544,226.25049 v 2.42977 l 0.730295,-0.0257 c 0.623053,-0.0219 1.082566,-0.13715 1.375003,-0.34619 0.295812,-0.21007 0.444222,-0.53031 0.444222,-0.96003 0,-0.42687 -0.14841,-0.73173 -0.444222,-0.91396 -0.292437,-0.18293 -0.75195,-0.25711 -1.375003,-0.2234 z m -0.598372,-0.31342 1.235424,-0.0702 c 0.875538,-0.0497 1.525661,0.0417 1.943428,0.27601 0.420448,0.23436 0.631684,0.62668 0.631684,1.17584 0,0.55201 -0.212275,0.96538 -0.634781,1.23879 -0.419799,0.27165 -1.068855,0.42112 -1.940331,0.44944 l -1.235424,0.0401 z"
         style="text-align:center;text-anchor:middle;fill:#ffffff;stroke-width:0.264583"
         id="path1721"
         inkscape:original-d="m 75.07747,216.03599 v 5.99962 h 1.260901 q 1.596797,0 2.335767,-0.72347 0.744139,-0.72347 0.744139,-2.28409 0,-1.55029 -0.744139,-2.26859 -0.73897,-0.72347 -2.335767,-0.72347 z m -1.043861,-0.85782 h 2.144566 q 2.24275,0 3.291778,0.93534 1.049028,0.93017 1.049028,2.91454 0,1.9947 -1.054196,2.93004 -1.054196,0.93534 -3.28661,0.93534 h -2.144566 z" />
      <path
         d="m 84.828754,227.44963 v 0.19907 l -2.755447,0.11268 c 0.02553,0.27351 0.146945,0.4785 0.364765,0.61525 0.22068,0.13568 0.528273,0.19687 0.923978,0.1832 0.230277,-0.008 0.453702,-0.0347 0.670204,-0.0803 0.219396,-0.0459 0.437301,-0.1109 0.653698,-0.19522 v 0.38447 c -0.218602,0.0691 -0.441993,0.12342 -0.670124,0.16311 -0.227362,0.0395 -0.457223,0.063 -0.689552,0.0704 -0.578403,0.0185 -1.033496,-0.0798 -1.367744,-0.29398 -0.330463,-0.2132 -0.495079,-0.51066 -0.495079,-0.89319 0,-0.39547 0.156164,-0.71628 0.4696,-0.9633 0.317055,-0.24974 0.74609,-0.38887 1.289261,-0.41666 0.490897,-0.0251 0.881165,0.062 1.169022,0.26208 0.291298,0.19937 0.437418,0.48371 0.437418,0.85237 z m -0.608961,-0.0931 c -0.0044,-0.22148 -0.09767,-0.39406 -0.279473,-0.51751 -0.17913,-0.12322 -0.416507,-0.17752 -0.711514,-0.16317 -0.332493,0.0162 -0.597947,0.0922 -0.79715,0.22781 -0.196478,0.13512 -0.309403,0.31738 -0.3392,0.54702 z"
         style="text-align:center;text-anchor:middle;fill:#ffffff;stroke-width:0.264583"
         id="path1723"
         inkscape:original-d="m 87.092202,219.76185 v 0.46509 H 82.72039 q 0.06201,0.98185 0.589109,1.49861 0.532266,0.51159 1.477942,0.51159 0.547768,0 1.059363,-0.13435 0.516763,-0.13436 1.02319,-0.40308 v 0.89917 q -0.511595,0.21704 -1.049028,0.33073 -0.537433,0.11368 -1.090369,0.11368 -1.384924,0 -2.196242,-0.80615 -0.806149,-0.80615 -0.806149,-2.18073 0,-1.4211 0.764808,-2.25309 0.769977,-0.83716 2.072219,-0.83716 1.167883,0 1.844842,0.75448 0.682127,0.7493 0.682127,2.04121 z m -0.950843,-0.27905 q -0.01033,-0.78031 -0.439248,-1.2454 -0.423746,-0.46509 -1.126543,-0.46509 -0.795815,0 -1.276404,0.44959 -0.475422,0.44958 -0.547768,1.26607 z" />
      <path
         d="m 88.292564,226.21183 v 0.39469 c -0.181566,-0.0518 -0.369615,-0.0881 -0.564092,-0.10883 -0.193933,-0.0207 -0.394222,-0.026 -0.600809,-0.016 -0.31329,0.0153 -0.547894,0.058 -0.70461,0.12828 -0.154095,0.07 -0.231014,0.16747 -0.231014,0.29258 0,0.0953 0.05542,0.16807 0.166388,0.21828 0.11115,0.0488 0.335128,0.0906 0.67304,0.1253 l 0.21663,0.0221 c 0.451482,0.0439 0.773457,0.11999 0.964101,0.22839 0.193502,0.10709 0.290455,0.26449 0.290455,0.47198 0,0.23626 -0.144796,0.4283 -0.433487,0.57564 -0.285184,0.14667 -0.676271,0.22774 -1.171464,0.2436 -0.205286,0.007 -0.419044,-2e-5 -0.641193,-0.0197 -0.219175,-0.0182 -0.450019,-0.0493 -0.69241,-0.0933 v -0.42254 c 0.228902,0.0704 0.455189,0.12184 0.678833,0.15419 0.224375,0.031 0.447207,0.0427 0.668478,0.035 0.297666,-0.0103 0.527516,-0.0513 0.688867,-0.12309 0.161727,-0.0735 0.242732,-0.17135 0.242732,-0.29344 0,-0.11305 -0.05903,-0.19744 -0.176932,-0.25309 -0.115398,-0.0556 -0.369748,-0.10338 -0.761522,-0.14309 l -0.218971,-0.0248 c -0.388326,-0.0379 -0.667424,-0.10822 -0.838613,-0.21103 -0.170761,-0.10404 -0.255982,-0.25235 -0.255982,-0.44512 0,-0.2343 0.125626,-0.42135 0.377573,-0.56153 0.252877,-0.14071 0.613481,-0.22322 1.083506,-0.24727 0.233922,-0.012 0.45481,-0.012 0.662534,-3e-5 0.208347,0.012 0.401046,0.0362 0.577962,0.0726 z"
         style="text-align:center;text-anchor:middle;fill:#ffffff;stroke-width:0.264583"
         id="path1725"
         inkscape:original-d="m 92.342511,217.27622 v 0.89917 q -0.403075,-0.20671 -0.837156,-0.31006 -0.43408,-0.10335 -0.899167,-0.10335 -0.707965,0 -1.064531,0.21704 -0.351399,0.21704 -0.351399,0.65112 0,0.33073 0.253214,0.52193 0.253214,0.18604 1.018023,0.35657 l 0.32556,0.0723 q 1.012855,0.21704 1.4366,0.61495 0.428913,0.39274 0.428913,1.10071 0,0.80615 -0.640785,1.2764 -0.635618,0.47025 -1.751826,0.47025 -0.465086,0 -0.971514,-0.093 -0.501259,-0.0879 -1.059363,-0.26872 v -0.98185 q 0.527098,0.27389 1.038693,0.41341 0.511595,0.13436 1.012855,0.13436 0.671791,0 1.033525,-0.22738 0.361734,-0.23254 0.361734,-0.65112 0,-0.38757 -0.263549,-0.59427 -0.258381,-0.20671 -1.142046,-0.39791 l -0.330728,-0.0775 q -0.883664,-0.18603 -1.276404,-0.56843 -0.392739,-0.38758 -0.392739,-1.05937 0,-0.81648 0.578774,-1.2609 0.578774,-0.44442 1.643305,-0.44442 0.527098,0 0.992185,0.0775 0.465086,0.0775 0.857826,0.23254 z" />
      <path
         d="m 93.032066,227.10213 v 0.2111 l -3.094563,0.12655 c 0.02864,0.28961 0.164839,0.50644 0.409223,0.65079 0.24764,0.14322 0.592892,0.20738 1.037183,0.19203 0.258624,-0.009 0.509603,-0.0378 0.752852,-0.0866 0.246548,-0.0491 0.49147,-0.11855 0.734742,-0.20845 v 0.40767 c -0.245751,0.0737 -0.496837,0.13178 -0.753199,0.17433 -0.255447,0.0424 -0.513647,0.0677 -0.774568,0.0761 -0.649348,0.0208 -1.160026,-0.0824 -1.534969,-0.30857 -0.370588,-0.22504 -0.555151,-0.53963 -0.555151,-0.94465 0,-0.41873 0.175087,-0.75886 0.526575,-1.02138 0.355644,-0.26548 0.837059,-0.41423 1.446807,-0.44543 0.551321,-0.0282 0.989798,0.0628 1.313311,0.27408 0.327464,0.21049 0.491757,0.51156 0.491757,0.90248 z m -0.684559,-0.097 c -0.0049,-0.23478 -0.109761,-0.41746 -0.314044,-0.54778 -0.201247,-0.13007 -0.467884,-0.18688 -0.799175,-0.17077 -0.373284,0.0181 -0.671226,0.0995 -0.894762,0.24376 -0.220439,0.1437 -0.347119,0.33707 -0.380544,0.58036 z"
         style="text-align:center;text-anchor:middle;fill:#ffffff;stroke-width:0.264583"
         id="path1727"
         inkscape:original-d="m 99.11727,219.76185 v 0.46509 h -4.371812 q 0.06201,0.98185 0.58911,1.49861 0.532265,0.51159 1.477941,0.51159 0.547768,0 1.059363,-0.13435 0.516763,-0.13436 1.023191,-0.40308 v 0.89917 q -0.511596,0.21704 -1.049029,0.33073 -0.537433,0.11368 -1.090369,0.11368 -1.384924,0 -2.196241,-0.80615 -0.80615,-0.80615 -0.80615,-2.18073 0,-1.4211 0.764809,-2.25309 0.769976,-0.83716 2.072218,-0.83716 1.167884,0 1.844843,0.75448 0.682126,0.7493 0.682126,2.04121 z m -0.950843,-0.27905 q -0.01033,-0.78031 -0.439248,-1.2454 -0.423746,-0.46509 -1.126543,-0.46509 -0.795814,0 -1.276404,0.44959 -0.475421,0.44958 -0.547768,1.26607 z" />
      <path
         d="m 97.793651,226.73082 v 1.638 l -0.730455,0.0237 v -1.61549 c 0,-0.25558 -0.0816,-0.44308 -0.244518,-0.5623 -0.162563,-0.11895 -0.405742,-0.17047 -0.728738,-0.15478 -0.386248,0.0188 -0.68941,0.10898 -0.910504,0.27037 -0.220431,0.1609 -0.330397,0.37101 -0.330397,0.63069 v 1.50345 l -0.705695,0.0229 v -2.64726 l 0.705695,-0.0358 v 0.41327 c 0.16885,-0.1682 0.367623,-0.29779 0.596561,-0.38868 0.232242,-0.0913 0.500231,-0.14485 0.804355,-0.16041 0.504437,-0.0258 0.888335,0.051 1.149789,0.23117 0.262373,0.17914 0.393907,0.45634 0.393907,0.83111 z"
         style="text-align:center;text-anchor:middle;fill:#ffffff;stroke-width:0.264583"
         id="path1729"
         inkscape:original-d="m 105.48895,219.40012 v 3.49331 h -0.95084 v -3.46231 q 0,-0.82165 -0.32039,-1.22989 -0.32039,-0.40825 -0.96118,-0.40825 -0.76998,0 -1.21439,0.49093 -0.44442,0.49092 -0.44442,1.33841 v 3.27111 h -0.95601 v -5.78774 h 0.95601 v 0.89917 q 0.34106,-0.52193 0.80098,-0.78031 0.46509,-0.25839 1.0697,-0.25839 0.99735,0 1.50895,0.62012 0.51159,0.61495 0.51159,1.81384 z" />
      <path
         d="m 98.737128,225.60711 0.792006,-0.0402 1.442776,2.25315 1.47071,-2.40095 0.83181,-0.0422 -1.78051,2.87166 -1.04045,0.0338 z"
         style="text-align:center;text-anchor:middle;fill:#ffffff;stroke-width:0.264583"
         id="path1731"
         inkscape:original-d="m 106.70335,217.10569 h 1.00768 l 1.80867,4.85757 1.80867,-4.85757 h 1.00769 l -2.1704,5.78774 h -1.29191 z" />
      <path
         d="m 106.28267,225.55473 c -0.4386,0.0213 -0.78361,0.13665 -1.03624,0.34555 -0.2518,0.20653 -0.3774,0.47961 -0.3774,0.81974 0,0.34013 0.12413,0.60367 0.373,0.79106 0.25262,0.18617 0.59908,0.27189 1.04064,0.25663 0.43807,-0.0151 0.78699,-0.12673 1.04554,-0.33522 0.25942,-0.20917 0.38944,-0.48633 0.38944,-0.83096 0,-0.3429 -0.13002,-0.60838 -0.38944,-0.79598 -0.25855,-0.1887 -0.60747,-0.27213 -1.04554,-0.25082 z m 0,-0.39957 c 0.71648,-0.0367 1.28381,0.0686 1.6987,0.31696 0.41708,0.24968 0.62644,0.61413 0.62644,1.09239 0,0.47652 -0.20936,0.85839 -0.62644,1.1445 -0.41489,0.28289 -0.98222,0.43533 -1.6987,0.45827 -0.71296,0.0228 -1.26758,-0.0915 -1.66716,-0.34195 -0.39463,-0.25093 -0.5912,-0.60734 -0.5912,-1.07017 0,-0.46452 0.19657,-0.83728 0.5912,-1.11936 0.39958,-0.28366 0.9542,-0.44416 1.66716,-0.48064 z"
         style="text-align:center;text-anchor:middle;fill:#ffffff;stroke-width:0.264583"
         id="path1733"
         inkscape:original-d="m 115.89139,217.77231 q -0.76481,0 -1.20923,0.59945 -0.44441,0.59428 -0.44441,1.63297 0,1.03869 0.43924,1.63814 0.44442,0.59427 1.2144,0.59427 0.75964,0 1.20405,-0.59944 0.44442,-0.59945 0.44442,-1.63297 0,-1.02836 -0.44442,-1.6278 -0.44441,-0.60462 -1.20405,-0.60462 z m 0,-0.80615 q 1.24023,0 1.94819,0.80615 0.70797,0.80615 0.70797,2.23242 0,1.4211 -0.70797,2.23241 -0.70796,0.80615 -1.94819,0.80615 -1.2454,0 -1.95337,-0.80615 -0.70279,-0.81131 -0.70279,-2.23241 0,-1.42627 0.70279,-2.23242 0.70797,-0.80615 1.95337,-0.80615 z" />
      <path
         d="m 110.02029,223.89143 0.86429,-0.05 v 4.10204 l -0.86429,0.0281 z"
         style="text-align:center;text-anchor:middle;fill:#ffffff;stroke-width:0.264583"
         id="path1735"
         inkscape:original-d="m 120.12367,214.85261 h 0.95085 v 8.04082 h -0.95085 z" />
      <path
         d="m 112.08823,224.92979 0.94,-0.0477 1.71464,2.45017 1.75088,-2.62598 0.99163,-0.0503 -2.12141,3.14195 -1.23757,0.0402 z"
         style="text-align:center;text-anchor:middle;fill:#ffffff;stroke-width:0.264583"
         id="path1737"
         inkscape:original-d="m 122.38193,217.10569 h 1.00768 l 1.80867,4.85757 1.80867,-4.85757 h 1.00769 l -2.1704,5.78774 h -1.29191 z" />
      <path
         d="m 123.9221,225.79363 v 0.25638 l -4.54345,0.1858 c 0.0419,0.34982 0.24096,0.61068 0.59843,0.78299 0.36249,0.17104 0.86831,0.24564 1.51999,0.22312 0.37974,-0.0131 0.74854,-0.0503 1.10624,-0.11173 0.36282,-0.0618 0.7235,-0.14834 1.08202,-0.25975 v 0.49499 c -0.36217,0.0916 -0.73193,0.16421 -1.10918,0.21797 -0.3756,0.0535 -0.75497,0.0864 -1.13804,0.0986 -0.95205,0.0305 -1.69951,-0.0902 -2.24757,-0.3604 -0.5411,-0.26863 -0.81036,-0.64687 -0.81036,-1.13601 0,-0.5057 0.25543,-0.91853 0.76861,-1.23995 0.5198,-0.3254 1.22429,-0.51153 2.11802,-0.55726 0.80949,-0.0414 1.45424,0.0633 1.93049,0.31539 0.48253,0.25144 0.7248,0.61506 0.7248,1.08983 z m -1.00867,-0.11021 c -0.007,-0.28478 -0.16152,-0.50516 -0.46205,-0.66076 -0.29587,-0.15524 -0.68759,-0.22078 -1.17387,-0.19714 -0.54734,0.0266 -0.98378,0.12874 -1.31097,0.30598 -0.32244,0.1764 -0.50765,0.41167 -0.5565,0.70618 z"
         style="text-align:center;text-anchor:middle;fill:#ffffff;stroke-width:0.264583"
         id="path1739"
         inkscape:original-d="m 134.2778,219.76185 v 0.46509 h -4.37181 q 0.062,0.98185 0.58911,1.49861 0.53226,0.51159 1.47794,0.51159 0.54777,0 1.05936,-0.13435 0.51677,-0.13436 1.02319,-0.40308 v 0.89917 q -0.51159,0.21704 -1.04903,0.33073 -0.53743,0.11368 -1.09036,0.11368 -1.38493,0 -2.19625,-0.80615 -0.80615,-0.80615 -0.80615,-2.18073 0,-1.4211 0.76481,-2.25309 0.76998,-0.83716 2.07222,-0.83716 1.16788,0 1.84484,0.75448 0.68213,0.7493 0.68213,2.04121 z m -0.95084,-0.27905 q -0.0103,-0.78031 -0.43925,-1.2454 -0.42375,-0.46509 -1.12654,-0.46509 -0.79582,0 -1.27641,0.44959 -0.47542,0.44958 -0.54777,1.26607 z" />
      <path
         d="m 129.84486,224.52964 v -1.7847 l 1.09093,-0.0631 v 4.61015 l -1.09093,0.0354 v -0.49477 c -0.2276,0.20411 -0.51519,0.35978 -0.86221,0.4671 -0.34181,0.10482 -0.75182,0.16475 -1.22908,0.18003 -0.77586,0.0249 -1.40343,-0.11102 -1.88577,-0.40622 -0.47599,-0.29374 -0.71302,-0.69246 -0.71302,-1.19735 0,-0.50488 0.23703,-0.92332 0.71302,-1.25666 0.48234,-0.33533 1.10991,-0.5234 1.88577,-0.56311 0.47726,-0.0244 0.88727,0.002 1.22908,0.0807 0.34702,0.0765 0.63461,0.20727 0.86221,0.39244 z m -3.62121,1.30214 c 0,0.39059 0.15672,0.69157 0.47101,0.90352 0.31921,0.21063 0.75809,0.30661 1.31839,0.28726 0.56384,-0.0195 1.01047,-0.14727 1.33811,-0.38396 0.32883,-0.23951 0.4937,-0.55887 0.4937,-0.95744 0,-0.39856 -0.16487,-0.70324 -0.4937,-0.91344 -0.32764,-0.21139 -0.77427,-0.30301 -1.33811,-0.27558 -0.5603,0.0273 -0.99918,0.16072 -1.31839,0.39983 -0.31429,0.23617 -0.47101,0.54923 -0.47101,0.93981 z"
         style="text-align:center;text-anchor:middle;fill:#ffffff;stroke-width:0.264583"
         id="path1741"
         inkscape:original-d="m 139.64697,217.98419 v -3.13158 h 0.95084 v 8.04082 h -0.95084 v -0.86816 q -0.29973,0.51676 -0.75964,0.76998 -0.45476,0.24804 -1.09554,0.24804 -1.04903,0 -1.71049,-0.83715 -0.65628,-0.83716 -0.65628,-2.20141 0,-1.36425 0.65628,-2.20141 0.66146,-0.83716 1.71049,-0.83716 0.64078,0 1.09554,0.25322 0.45991,0.24804 0.75964,0.76481 z m -3.24011,2.02054 q 0,1.04903 0.42892,1.64847 0.43408,0.59428 1.18855,0.59428 0.75448,0 1.18856,-0.59428 0.43408,-0.59944 0.43408,-1.64847 0,-1.04903 -0.43408,-1.64331 -0.43408,-0.59944 -1.18856,-0.59944 -0.75447,0 -1.18855,0.59944 -0.42892,0.59428 -0.42892,1.64331 z" />
      <path
         d="m 135.91797,224.11355 c -0.61914,0.0301 -1.10571,0.17078 -1.46173,0.42143 -0.35467,0.24768 -0.53149,0.57294 -0.53149,0.97648 0,0.40354 0.17477,0.71517 0.52529,0.93551 0.356,0.21901 0.84461,0.31812 1.46793,0.29657 0.61905,-0.0214 1.11258,-0.15685 1.47857,-0.40698 0.36741,-0.25112 0.55166,-0.58219 0.55166,-0.99245 0,-0.40822 -0.18425,-0.72294 -0.55166,-0.94349 -0.36599,-0.22175 -0.85952,-0.31717 -1.47857,-0.28707 z m 0,-0.47485 c 1.01281,-0.0518 1.81602,0.0669 2.40412,0.35794 0.59175,0.29287 0.88902,0.72497 0.88902,1.29494 0,0.56789 -0.29727,1.02472 -0.88902,1.36888 -0.5881,0.33997 -1.39131,0.52551 -2.40412,0.55794 -1.00611,0.0322 -1.78758,-0.0995 -2.34995,-0.39364 -0.5549,-0.29447 -0.8311,-0.71533 -0.8311,-1.26389 0,-0.55056 0.2762,-0.9944 0.8311,-1.33304 0.56237,-0.34089 1.34384,-0.53765 2.34995,-0.58913 z"
         style="text-align:center;text-anchor:middle;fill:#ffffff;stroke-width:0.264583"
         id="path1743"
         inkscape:original-d="m 144.79909,217.77231 q -0.76481,0 -1.20922,0.59945 -0.44442,0.59428 -0.44442,1.63297 0,1.03869 0.43925,1.63814 0.44441,0.59427 1.21439,0.59427 0.75964,0 1.20406,-0.59944 0.44441,-0.59945 0.44441,-1.63297 0,-1.02836 -0.44441,-1.6278 -0.44442,-0.60462 -1.20406,-0.60462 z m 0,-0.80615 q 1.24023,0 1.9482,0.80615 0.70796,0.80615 0.70796,2.23242 0,1.4211 -0.70796,2.23241 -0.70797,0.80615 -1.9482,0.80615 -1.2454,0 -1.95336,-0.80615 -0.7028,-0.81131 -0.7028,-2.23241 0,-1.42627 0.7028,-2.23242 0.70796,-0.80615 1.95336,-0.80615 z" />
      <path
         d="m 145.64126,223.77841 c -0.1439,-0.0315 -0.30149,-0.0516 -0.47269,-0.0604 -0.16629,-0.0111 -0.35073,-0.0117 -0.5532,-0.002 -0.71452,0.0346 -1.2606,0.16875 -1.64105,0.40179 -0.37446,0.22983 -0.56114,0.54389 -0.56114,0.94286 v 1.85836 l -1.23912,0.0403 v -3.50512 l 1.23912,-0.0629 v 0.54805 c 0.26101,-0.22697 0.60184,-0.4027 1.02331,-0.52714 0.4233,-0.12709 0.94013,-0.20643 1.55195,-0.23774 0.0877,-0.004 0.18477,-0.006 0.29115,-0.005 0.10651,-0.001 0.22473,2.4e-4 0.3547,0.004 z"
         style="text-align:center;text-anchor:middle;fill:#ffffff;stroke-width:0.264583"
         id="path1745"
         inkscape:original-d="m 152.38517,217.99452 q -0.1602,-0.093 -0.3514,-0.13436 -0.18604,-0.0465 -0.41341,-0.0465 -0.80615,0 -1.24023,0.52709 -0.42892,0.52193 -0.42892,1.50378 v 3.0489 h -0.95601 v -5.78774 h 0.95601 v 0.89917 q 0.29973,-0.5271 0.78032,-0.78031 0.48059,-0.25839 1.16788,-0.25839 0.0982,0 0.21704,0.0155 0.11886,0.0103 0.26355,0.0362 z" />
      <path
         d="m 153.66231,224.53383 v 0.29997 l -6.19251,0.25324 c 0.0568,0.40719 0.32705,0.70965 0.81252,0.90792 0.49262,0.1969 1.18062,0.28048 2.068,0.24982 0.51761,-0.0179 1.02066,-0.0638 1.50891,-0.13804 0.4956,-0.0747 0.98862,-0.17844 1.47902,-0.3113 v 0.57902 c -0.49539,0.1095 -1.00081,0.1968 -1.51608,0.26206 -0.51268,0.0649 -1.0301,0.10564 -1.55218,0.12235 -1.29587,0.0415 -2.31157,-0.0945 -3.05539,-0.40573 -0.73359,-0.30911 -1.09836,-0.74743 -1.09836,-1.31668 0,-0.58851 0.34602,-1.07123 1.04173,-1.45014 0.70538,-0.384 1.66254,-0.60786 2.87869,-0.67009 1.10334,-0.0565 1.98338,0.0594 2.63413,0.34947 0.65994,0.28946 0.99152,0.71264 0.99152,1.26813 z m -1.37949,-0.12033 c -0.01,-0.33281 -0.22065,-0.589 -0.63101,-0.76806 -0.40376,-0.17858 -0.93797,-0.25141 -1.60058,-0.21919 -0.74507,0.0362 -1.3386,0.15942 -1.78323,0.36905 -0.4379,0.20847 -0.6893,0.48421 -0.75559,0.82771 z"
         style="text-align:center;text-anchor:middle;fill:#ffffff;stroke-width:0.264583"
         id="path1747"
         inkscape:original-d="m 158.10056,219.76185 v 0.46509 h -4.37181 q 0.062,0.98185 0.58911,1.49861 0.53226,0.51159 1.47794,0.51159 0.54777,0 1.05936,-0.13435 0.51677,-0.13436 1.02319,-0.40308 v 0.89917 q -0.51159,0.21704 -1.04902,0.33073 -0.53744,0.11368 -1.09037,0.11368 -1.38493,0 -2.19624,-0.80615 -0.80615,-0.80615 -0.80615,-2.18073 0,-1.4211 0.7648,-2.25309 0.76998,-0.83716 2.07222,-0.83716 1.16789,0 1.84485,0.75448 0.68212,0.7493 0.68212,2.04121 z m -0.95084,-0.27905 q -0.0103,-0.78031 -0.43925,-1.2454 -0.42374,-0.46509 -1.12654,-0.46509 -0.79582,0 -1.27641,0.44959 -0.47542,0.44958 -0.54776,1.26607 z" />
      <path
         d="m 161.6298,222.53076 v 0.60252 c -0.42282,-0.0721 -0.86013,-0.12021 -1.31173,-0.14436 -0.44968,-0.0241 -0.9134,-0.0244 -1.39097,-0.001 -0.72283,0.0352 -1.263,0.10904 -1.6233,0.22147 -0.35386,0.1118 -0.53035,0.2623 -0.53035,0.45178 0,0.14437 0.12714,0.2526 0.38189,0.32484 0.25537,0.0701 0.77062,0.12579 1.54963,0.16702 l 0.50044,0.0263 c 1.04563,0.0514 1.79349,0.15662 2.23716,0.31566 0.45099,0.15717 0.6772,0.3945 0.6772,0.7115 0,0.36095 -0.33778,0.65835 -1.01013,0.8911 -0.66274,0.2311 -1.56926,0.36457 -2.71327,0.4012 -0.47302,0.0152 -0.96478,0.0105 -1.47501,-0.0137 -0.50257,-0.0221 -1.03099,-0.0633 -1.58487,-0.12352 v -0.63844 c 0.52303,0.10007 1.04097,0.17165 1.55371,0.21451 0.5153,0.0408 1.02791,0.0525 1.53778,0.0349 0.68724,-0.0237 1.21896,-0.0924 1.59277,-0.2062 0.37514,-0.1165 0.56321,-0.26793 0.56321,-0.454 0,-0.17229 -0.13706,-0.29906 -0.41063,-0.38017 -0.26754,-0.0811 -0.85638,-0.1457 -1.76117,-0.19361 l -0.50455,-0.0306 c -0.89272,-0.045 -1.53274,-0.14254 -1.92464,-0.29251 -0.39042,-0.15164 -0.58508,-0.3729 -0.58508,-0.66421 0,-0.35405 0.28699,-0.64144 0.86338,-0.86311 0.57962,-0.22291 1.40806,-0.36233 2.49126,-0.41775 0.54052,-0.0277 1.05179,-0.0367 1.53336,-0.0269 0.48379,0.01 0.93191,0.0389 1.34391,0.0874 z"
         style="text-align:center;text-anchor:middle;fill:#ffffff;stroke-width:0.264583"
         id="path1749"
         inkscape:original-d="m 163.35087,217.27622 v 0.89917 q -0.40308,-0.20671 -0.83716,-0.31006 -0.43408,-0.10335 -0.89916,-0.10335 -0.70797,0 -1.06453,0.21704 -0.3514,0.21704 -0.3514,0.65112 0,0.33073 0.25321,0.52193 0.25321,0.18604 1.01802,0.35657 l 0.32556,0.0723 q 1.01286,0.21704 1.4366,0.61495 0.42892,0.39274 0.42892,1.10071 0,0.80615 -0.64079,1.2764 -0.63562,0.47025 -1.75182,0.47025 -0.46509,0 -0.97152,-0.093 -0.50126,-0.0879 -1.05936,-0.26872 v -0.98185 q 0.5271,0.27389 1.03869,0.41341 0.5116,0.13436 1.01286,0.13436 0.67179,0 1.03352,-0.22738 0.36173,-0.23254 0.36173,-0.65112 0,-0.38757 -0.26354,-0.59427 -0.25839,-0.20671 -1.14205,-0.39791 l -0.33073,-0.0775 q -0.88366,-0.18603 -1.2764,-0.56843 -0.39274,-0.38758 -0.39274,-1.05937 0,-0.81648 0.57877,-1.2609 0.57878,-0.44442 1.64331,-0.44442 0.5271,0 0.99218,0.0775 0.46509,0.0775 0.85783,0.23254 z" />
      <path
         d="m 97.971395,230.95155 0.820293,-0.0124 1.280402,3.0854 1.29831,-3.12437 0.95563,-0.0144 1.34183,3.15837 1.36112,-3.19922 0.90454,-0.0137 -1.64677,3.80042 -1.09591,-0.0101 -1.3378,-3.2383 -1.3272,3.21378 -1.043641,-0.01 z"
         style="text-align:center;text-anchor:middle;fill:#ffffff;stroke-width:0.264583"
         id="path1751"
         inkscape:original-d="m 105.71891,228.40729 h 1.0542 l 1.62263,6.52155 1.61747,-6.52155 h 1.17305 l 1.62264,6.52155 1.61746,-6.52155 h 1.05937 l -1.93786,7.71527 h -1.31258 l -1.6278,-6.69725 -1.64331,6.69725 h -1.31257 z" />
      <path
         d="m 110.96253,233.09471 v 0.23738 l -3.90263,-0.003 c 0.036,0.32614 0.20735,0.57578 0.51489,0.7493 0.31175,0.1725 0.74662,0.26098 1.30662,0.26498 0.32617,0.002 0.64284,-0.0181 0.94988,-0.0613 0.31135,-0.0434 0.62077,-0.10977 0.92824,-0.19924 v 0.45835 c -0.3106,0.071 -0.6278,0.12426 -0.95153,0.15973 -0.32244,0.0353 -0.6482,0.0513 -0.97724,0.0482 -0.81826,-0.008 -1.46113,-0.14825 -1.93276,-0.41983 -0.46586,-0.26995 -0.69775,-0.63132 -0.69775,-1.08529 0,-0.46933 0.21998,-0.8425 0.66181,-1.12068 0.44734,-0.28149 1.0533,-0.42645 1.82152,-0.43373 0.69531,-0.007 1.24877,0.11571 1.65739,0.36789 0.41384,0.2517 0.62156,0.59783 0.62156,1.03742 z m -0.86511,-0.14109 c -0.006,-0.26407 -0.1386,-0.47422 -0.39653,-0.63008 -0.254,-0.15538 -0.59038,-0.23143 -1.00812,-0.22854 -0.4704,0.003 -0.84564,0.0809 -1.12705,0.23247 -0.2774,0.15104 -0.43676,0.36207 -0.4788,0.63338 z"
         style="text-align:center;text-anchor:middle;fill:#ffffff;stroke-width:0.264583"
         id="path1753"
         inkscape:original-d="m 121.15978,232.99098 v 0.46508 h -4.37181 q 0.062,0.98185 0.58911,1.49861 0.53226,0.5116 1.47794,0.5116 0.54777,0 1.05936,-0.13436 0.51677,-0.13436 1.02319,-0.40307 v 0.89916 q -0.51159,0.21704 -1.04902,0.33073 -0.53744,0.11369 -1.09037,0.11369 -1.38493,0 -2.19625,-0.80615 -0.80614,-0.80615 -0.80614,-2.18074 0,-1.4211 0.7648,-2.25309 0.76998,-0.83715 2.07222,-0.83715 1.16789,0 1.84484,0.75447 0.68213,0.74931 0.68213,2.04122 z m -0.95084,-0.27906 q -0.0103,-0.78031 -0.43925,-1.24539 -0.42375,-0.46509 -1.12654,-0.46509 -0.79582,0 -1.27641,0.44958 -0.47542,0.44959 -0.54776,1.26607 z" />
      <path
         d="m 116.36494,233.2192 c 0,-0.36885 -0.14121,-0.65722 -0.42293,-0.86457 -0.27743,-0.20848 -0.65863,-0.31077 -1.14219,-0.3074 -0.48075,0.003 -0.85746,0.10984 -1.13155,0.31896 -0.26993,0.20662 -0.40456,0.49069 -0.40456,0.85271 0,0.36202 0.13463,0.64701 0.40456,0.85547 0.27409,0.20738 0.6508,0.31305 1.13155,0.31649 0.48356,0.003 0.86476,-0.0978 1.14219,-0.30445 0.28172,-0.20911 0.42293,-0.49835 0.42293,-0.86721 z m -3.10123,-1.04623 c 0.18822,-0.17972 0.42574,-0.31378 0.71297,-0.4021 0.29152,-0.0904 0.64006,-0.13771 1.04635,-0.14156 0.67827,-0.006 1.23261,0.1354 1.66051,0.42664 0.43348,0.29271 0.65107,0.68087 0.65107,1.16334 0,0.48248 -0.21759,0.8706 -0.65107,1.16323 -0.4279,0.29115 -0.98224,0.43287 -1.66051,0.42631 -0.40629,-0.004 -0.75483,-0.0504 -1.04635,-0.13908 -0.28723,-0.0902 -0.52475,-0.22516 -0.71297,-0.40492 v 0.44941 l -0.89462,-0.008 v -4.13967 l 0.89462,-0.0144 z"
         style="text-align:center;text-anchor:middle;fill:#ffffff;stroke-width:0.264583"
         id="path1755"
         inkscape:original-d="m 126.87518,233.23385 q 0,-1.04902 -0.43408,-1.6433 -0.42892,-0.59945 -1.18339,-0.59945 -0.75447,0 -1.18855,0.59945 -0.42892,0.59428 -0.42892,1.6433 0,1.04903 0.42892,1.64848 0.43408,0.59427 1.18855,0.59427 0.75447,0 1.18339,-0.59427 0.43408,-0.59945 0.43408,-1.64848 z m -3.23494,-2.02054 q 0.29973,-0.51676 0.75448,-0.76481 0.45992,-0.25321 1.09553,-0.25321 1.0542,0 1.71049,0.83715 0.66145,0.83716 0.66145,2.20141 0,1.36426 -0.66145,2.20141 -0.65629,0.83716 -1.71049,0.83716 -0.63561,0 -1.09553,-0.24805 -0.45475,-0.25321 -0.75448,-0.76997 v 0.86816 h -0.95601 v -8.04083 h 0.95601 z" />
      <path
         d="m 86.961123,237.24233 v 2.60837 l 0.841951,0.0406 c 0.718869,0.0346 1.249378,-0.0462 1.587143,-0.24359 0.341777,-0.19821 0.51329,-0.52866 0.51329,-0.99064 0,-0.45891 -0.171513,-0.80036 -0.51329,-1.02352 -0.337765,-0.22352 -0.868274,-0.34549 -1.587143,-0.36654 z m -0.689335,-0.39126 1.423747,0.0378 c 1.010222,0.0268 1.761008,0.1848 2.243757,0.47506 0.486079,0.29072 0.730378,0.73214 0.730378,1.32274 0,0.59368 -0.2455,1.01843 -0.733957,1.27291 -0.485094,0.25273 -1.234645,0.35258 -2.240178,0.3014 l -1.423747,-0.0725 z"
         style="text-align:center;text-anchor:middle;fill:#ffffff;stroke-width:0.264583"
         id="path1757"
         inkscape:original-d="m 90.355559,242.49424 v 5.99962 h 1.260901 q 1.596796,0 2.335767,-0.72347 0.744138,-0.72347 0.744138,-2.28409 0,-1.55029 -0.744138,-2.26859 -0.738971,-0.72347 -2.335767,-0.72347 z m -1.043861,-0.85783 h 2.144565 q 2.24275,0 3.291778,0.93535 1.049029,0.93017 1.049029,2.91454 0,1.9947 -1.054196,2.93004 -1.054196,0.93534 -3.286611,0.93534 h -2.144565 z" />
      <path
         d="m 95.42435,239.20937 v 0.21461 l -3.197081,-0.13585 c 0.02958,0.29676 0.170242,0.52876 0.422648,0.69636 0.255784,0.16674 0.612416,0.26149 1.071392,0.2839 0.267194,0.013 0.526503,0.005 0.777839,-0.0236 0.254766,-0.0288 0.50786,-0.0785 0.759262,-0.14903 v 0.41444 c -0.253964,0.0539 -0.51343,0.0914 -0.778334,0.11273 -0.263939,0.0212 -0.530707,0.0249 -0.800267,0.011 -0.670791,-0.0345 -1.198261,-0.18305 -1.585492,-0.44496 -0.382701,-0.26038 -0.573284,-0.59584 -0.573284,-1.00742 0,-0.4255 0.180798,-0.75619 0.543772,-0.99297 0.367297,-0.23946 0.864534,-0.34957 1.4944,-0.32928 0.569586,0.0183 1.022642,0.14832 1.356941,0.39064 0.33841,0.24194 0.508204,0.56204 0.508204,0.95945 z m -0.707432,-0.15716 c -0.0051,-0.23907 -0.113404,-0.43372 -0.324502,-0.58364 -0.207938,-0.14939 -0.483421,-0.22989 -0.825679,-0.24179 -0.385612,-0.0134 -0.693369,0.0439 -0.924256,0.17139 -0.227676,0.12722 -0.35851,0.31292 -0.39303,0.55732 z"
         style="text-align:center;text-anchor:middle;fill:#ffffff;stroke-width:0.264583"
         id="path1759"
         inkscape:original-d="m 102.37029,246.2201 v 0.46509 h -4.371811 q 0.06201,0.98185 0.589109,1.49861 0.532266,0.51159 1.477942,0.51159 0.54777,0 1.05936,-0.13436 0.51677,-0.13435 1.02319,-0.40307 v 0.89917 q -0.51159,0.21704 -1.04903,0.33073 -0.53743,0.11368 -1.09036,0.11368 -1.384929,0 -2.196246,-0.80615 -0.80615,-0.80615 -0.80615,-2.18074 0,-1.42109 0.764809,-2.25308 0.769976,-0.83716 2.072218,-0.83716 1.167879,0 1.844839,0.75448 0.68213,0.7493 0.68213,2.04121 z m -0.95084,-0.27905 q -0.0103,-0.78031 -0.43925,-1.2454 -0.42375,-0.46509 -1.126543,-0.46509 -0.795815,0 -1.276404,0.44959 -0.475422,0.44958 -0.547769,1.26607 z" />
      <path
         d="m 97.30258,240.34423 v 1.43455 l -0.72958,-0.0422 v -3.71534 l 0.72958,0.0238 v 0.41056 c 0.1534,-0.15574 0.346925,-0.26852 0.580887,-0.33825 0.237373,-0.0715 0.521077,-0.10202 0.851636,-0.0914 0.551482,0.0178 1.001878,0.16483 1.349337,0.44205 0.35181,0.2786 0.52833,0.63566 0.52833,1.0702 0,0.43454 -0.17652,0.77684 -0.52833,1.02604 -0.347459,0.24818 -0.797855,0.3576 -1.349337,0.32927 -0.330559,-0.017 -0.614263,-0.0704 -0.851636,-0.16012 -0.233962,-0.0909 -0.427487,-0.22067 -0.580887,-0.38923 z m 2.523166,-0.83885 c 0,-0.3324 -0.11469,-0.5971 -0.343547,-0.79364 -0.225455,-0.19748 -0.535364,-0.30286 -0.928678,-0.31651 -0.391257,-0.0136 -0.698003,0.0695 -0.921269,0.24878 -0.219944,0.17724 -0.329672,0.42908 -0.329672,0.75593 0,0.32684 0.109728,0.58866 0.329672,0.78589 0.223266,0.19634 0.530012,0.30425 0.921269,0.32337 0.393314,0.0192 0.703223,-0.0594 0.928678,-0.23645 0.228857,-0.17904 0.343547,-0.43497 0.343547,-0.76737 z"
         style="text-align:center;text-anchor:middle;fill:#ffffff;stroke-width:0.264583"
         id="path1761"
         inkscape:original-d="m 104.85075,248.48352 v 3.06957 h -0.95601 v -7.98915 h 0.95601 v 0.8785 q 0.29972,-0.51677 0.75447,-0.76481 0.45992,-0.25322 1.09554,-0.25322 1.0542,0 1.71049,0.83716 0.66145,0.83715 0.66145,2.20141 0,1.36425 -0.66145,2.20141 -0.65629,0.83715 -1.71049,0.83715 -0.63562,0 -1.09554,-0.24804 -0.45475,-0.25322 -0.75447,-0.76998 z m 3.23494,-2.02054 q 0,-1.04903 -0.43408,-1.64331 -0.42892,-0.59944 -1.18339,-0.59944 -0.75447,0 -1.18856,0.59944 -0.42891,0.59428 -0.42891,1.64331 0,1.04903 0.42891,1.64847 0.43409,0.59428 1.18856,0.59428 0.75447,0 1.18339,-0.59428 0.43408,-0.59944 0.43408,-1.64847 z" />
      <path
         d="m 104.67008,238.72168 c -0.0902,-0.0336 -0.189,-0.059 -0.29637,-0.0763 -0.10434,-0.0188 -0.2201,-0.0305 -0.34724,-0.0349 -0.44909,-0.0157 -0.79278,0.0577 -1.03245,0.21977 -0.23609,0.15997 -0.35386,0.39823 -0.35386,0.71515 v 1.47619 l -0.78292,-0.0399 v -2.78796 l 0.78292,0.0256 v 0.43535 c 0.16465,-0.16447 0.3795,-0.28333 0.64499,-0.3565 0.2664,-0.0751 0.59134,-0.10658 0.97553,-0.0942 0.0551,0.002 0.11593,0.006 0.18266,0.0135 0.0668,0.006 0.14091,0.0138 0.22237,0.0249 z"
         style="text-align:center;text-anchor:middle;fill:#ffffff;stroke-width:0.264583"
         id="path1763"
         inkscape:original-d="m 114.00262,244.45277 q -0.1602,-0.093 -0.3514,-0.13436 -0.18604,-0.0465 -0.41341,-0.0465 -0.80615,0 -1.24023,0.5271 -0.42891,0.52193 -0.42891,1.50378 v 3.0489 h -0.95602 v -5.78774 h 0.95602 v 0.89917 q 0.29972,-0.5271 0.78031,-0.78031 0.48059,-0.25839 1.16788,-0.25839 0.0982,0 0.21704,0.0155 0.11886,0.0103 0.26355,0.0362 z" />
      <path
         d="m 105.51745,238.31332 0.81649,0.0267 v 2.86962 l -0.81649,-0.0416 z m 0,-1.11131 0.81649,0.0209 v 0.59698 l -0.81649,-0.024 z"
         style="text-align:center;text-anchor:middle;fill:#ffffff;stroke-width:0.264583"
         id="path1765"
         inkscape:original-d="m 114.99997,243.56394 h 0.95084 v 5.78774 h -0.95084 z m 0,-2.25309 h 0.95084 v 1.20406 h -0.95084 z" />
      <path
         d="m 112.14816,239.10106 c 0.22094,-0.21194 0.48588,-0.36527 0.79527,-0.45982 0.31055,-0.0949 0.67762,-0.13569 1.10194,-0.12202 0.57467,0.0185 1.02072,0.14376 1.33605,0.37631 0.31654,0.23162 0.47526,0.55246 0.47526,0.96187 v 1.83685 l -0.923,-0.047 v -1.81049 c 0,-0.29004 -0.0942,-0.50879 -0.28234,-0.65602 -0.18768,-0.14689 -0.47333,-0.22689 -0.85593,-0.24022 -0.46522,-0.0162 -0.831,0.0556 -1.09862,0.215 -0.26675,0.15886 -0.3998,0.38347 -0.3998,0.67421 v 1.68333 l -0.88414,-0.045 v -1.77207 c 0,-0.28564 -0.0903,-0.49968 -0.27049,-0.64188 -0.17983,-0.14365 -0.45666,-0.22187 -0.82953,-0.23485 -0.43957,-0.0153 -0.78704,0.0563 -1.04356,0.21423 -0.25571,0.15573 -0.38326,0.37487 -0.38326,0.65781 v 1.64816 l -0.84768,-0.0431 v -2.90071 l 0.84768,0.0277 v 0.45305 c 0.19371,-0.17214 0.42647,-0.29641 0.69862,-0.37271 0.27308,-0.0766 0.59857,-0.10886 0.9771,-0.0967 0.38348,0.0123 0.71022,0.0775 0.97955,0.19567 0.27341,0.11867 0.47588,0.28482 0.60688,0.49839 z"
         style="text-align:center;text-anchor:middle;fill:#ffffff;stroke-width:0.264583"
         id="path1767"
         inkscape:original-d="m 122.44652,244.67498 q 0.35657,-0.64079 0.85266,-0.94568 0.49609,-0.30489 1.16788,-0.30489 0.90434,0 1.39526,0.63562 0.49093,0.63045 0.49093,1.79834 v 3.49331 h -0.95601 v -3.46231 q 0,-0.83199 -0.29456,-1.23506 -0.29455,-0.40308 -0.89916,-0.40308 -0.73898,0 -1.16789,0.49093 -0.42891,0.49092 -0.42891,1.33841 v 3.27111 h -0.95601 v -3.46231 q 0,-0.83715 -0.29456,-1.23506 -0.29455,-0.40308 -0.9095,-0.40308 -0.72864,0 -1.15755,0.4961 -0.42891,0.49092 -0.42891,1.33324 v 3.27111 h -0.95601 v -5.78774 h 0.95601 v 0.89917 q 0.32556,-0.53227 0.78031,-0.78548 0.45475,-0.25322 1.08003,-0.25322 0.63046,0 1.0697,0.3204 0.44442,0.32039 0.65629,0.93017 z" />
      <path
         d="m 117.71845,238.71173 0.94915,0.031 v 3.09459 l -0.94915,-0.0483 z m 0,-1.19795 0.94915,0.0243 v 0.64379 l -0.94915,-0.0279 z"
         style="text-align:center;text-anchor:middle;fill:#ffffff;stroke-width:0.264583"
         id="path1769"
         inkscape:original-d="m 128.24977,243.56394 h 0.95084 v 5.78774 h -0.95084 z m 0,-2.25309 h 0.95084 v 1.20406 h -0.95084 z" />
      <path
         d="m 124.69467,239.42593 v -1.73388 l 1.0295,0.0263 v 4.4781 l -1.0295,-0.0524 v -0.48068 c -0.21483,0.18017 -0.48631,0.30851 -0.81391,0.38515 -0.32273,0.0746 -0.70988,0.10024 -1.16061,0.0771 -0.73286,-0.0376 -1.32579,-0.2197 -1.78159,-0.54511 -0.44985,-0.32353 -0.6739,-0.7301 -0.6739,-1.22097 0,-0.49087 0.22405,-0.87871 0.6739,-1.16464 0.4558,-0.28732 1.04873,-0.41982 1.78159,-0.39621 0.45073,0.0145 0.83788,0.0734 1.16061,0.17694 0.3276,0.10211 0.59908,0.25219 0.81391,0.45032 z m -3.41984,0.97581 c 0,0.37967 0.1481,0.68476 0.44505,0.91586 0.30157,0.23019 0.71614,0.35845 1.24534,0.38431 0.53244,0.026 0.95413,-0.0626 1.26343,-0.26644 0.3104,-0.20648 0.46602,-0.5036 0.46602,-0.89082 0,-0.38721 -0.15562,-0.69639 -0.46602,-0.92692 -0.3093,-0.23161 -0.73099,-0.35639 -1.26343,-0.37488 -0.5292,-0.0184 -0.94377,0.0762 -1.24534,0.28303 -0.29695,0.2044 -0.44505,0.49618 -0.44505,0.87586 z"
         style="text-align:center;text-anchor:middle;fill:#ffffff;stroke-width:0.264583"
         id="path1771"
         inkscape:original-d="m 134.99869,244.44244 v -3.13159 h 0.95084 v 8.04083 h -0.95084 v -0.86816 q -0.29973,0.51676 -0.75964,0.76998 -0.45476,0.24804 -1.09554,0.24804 -1.04903,0 -1.71049,-0.83715 -0.65628,-0.83716 -0.65628,-2.20141 0,-1.36426 0.65628,-2.20141 0.66146,-0.83716 1.71049,-0.83716 0.64078,0 1.09554,0.25322 0.45991,0.24804 0.75964,0.76481 z m -3.24011,2.02054 q 0,1.04903 0.42892,1.64847 0.43408,0.59428 1.18855,0.59428 0.75448,0 1.18856,-0.59428 0.43408,-0.59944 0.43408,-1.64847 0,-1.04903 -0.43408,-1.64331 -0.43408,-0.59944 -1.18856,-0.59944 -0.75447,0 -1.18855,0.59944 -0.42892,0.59428 -0.42892,1.64331 z" />
      <path
         d="m 130.4213,239.50764 c -0.58332,-0.0203 -1.04181,0.0774 -1.37733,0.29225 -0.33429,0.21212 -0.50097,0.51379 -0.50097,0.90558 0,0.3918 0.16474,0.70828 0.49512,0.95012 0.33551,0.24095 0.79593,0.37603 1.38318,0.4047 0.58311,0.0285 1.04791,-0.0637 1.39256,-0.27735 0.34594,-0.21444 0.5194,-0.52099 0.5194,-0.91907 0,-0.39609 -0.17346,-0.71615 -0.5194,-0.9595 -0.34465,-0.24442 -0.80945,-0.37646 -1.39256,-0.39673 z m 0,-0.46089 c 0.95396,0.0307 1.71029,0.21017 2.26393,0.53957 0.557,0.3314 0.83676,0.77431 0.83676,1.32723 0,0.5509 -0.27976,0.97043 -0.83676,1.25728 -0.55364,0.28312 -1.30997,0.39935 -2.26393,0.35035 -0.94795,-0.0487 -1.68446,-0.23873 -2.21458,-0.56902 -0.52318,-0.33011 -0.78362,-0.76079 -0.78362,-1.29349 0,-0.53463 0.26044,-0.94355 0.78362,-1.22799 0.53012,-0.28599 1.26663,-0.41447 2.21458,-0.38393 z"
         style="text-align:center;text-anchor:middle;fill:#ffffff;stroke-width:0.264583"
         id="path1773"
         inkscape:original-d="m 140.15081,244.23056 q -0.76481,0 -1.20922,0.59945 -0.44442,0.59428 -0.44442,1.63297 0,1.03869 0.43925,1.63814 0.44441,0.59427 1.21439,0.59427 0.75964,0 1.20406,-0.59944 0.44441,-0.59945 0.44441,-1.63297 0,-1.02836 -0.44441,-1.6278 -0.44442,-0.60462 -1.20406,-0.60462 z m 0,-0.80615 q 1.24023,0 1.9482,0.80615 0.70796,0.80615 0.70796,2.23242 0,1.4211 -0.70796,2.23241 -0.70797,0.80615 -1.9482,0.80615 -1.2454,0 -1.95336,-0.80615 -0.7028,-0.81131 -0.7028,-2.23241 0,-1.42627 0.7028,-2.23242 0.70796,-0.80615 1.95336,-0.80615 z" />
      <path
         d="m 139.99343,239.54173 v 0.5412 c -0.34121,-0.0951 -0.69425,-0.16964 -1.059,-0.22374 -0.36335,-0.0539 -0.73821,-0.0875 -1.12445,-0.1009 -0.58492,-0.0203 -1.02229,0.007 -1.31415,0.0826 -0.28674,0.0752 -0.42979,0.19803 -0.42979,0.36862 0,0.12998 0.10306,0.23653 0.3095,0.31979 0.20691,0.0814 0.62422,0.1683 1.25474,0.26103 l 0.40482,0.0594 c 0.84517,0.12077 1.44915,0.26853 1.80727,0.44295 0.36384,0.17319 0.54629,0.40237 0.54629,0.68704 0,0.32414 -0.27244,0.56743 -0.81501,0.72918 -0.53515,0.16106 -1.26771,0.2173 -2.1931,0.16977 -0.38292,-0.0197 -0.78119,-0.0584 -1.19462,-0.11622 -0.40742,-0.0553 -0.83602,-0.12972 -1.28548,-0.22308 v -0.57521 c 0.42444,0.12722 0.84454,0.22835 1.26023,0.30323 0.41754,0.0732 0.83271,0.11993 1.24545,0.1401 0.55601,0.0272 0.98595,0.003 1.28807,-0.073 0.30309,-0.0782 0.455,-0.20104 0.455,-0.36826 0,-0.15483 -0.1107,-0.27848 -0.33171,-0.37078 -0.21618,-0.0919 -0.6922,-0.19178 -1.42416,-0.2992 l -0.40843,-0.0635 c -0.72317,-0.10408 -1.242,-0.23755 -1.55986,-0.40059 -0.31678,-0.1645 -0.47476,-0.37777 -0.47476,-0.64021 0,-0.31897 0.23291,-0.55722 0.7005,-0.71534 0.46993,-0.15891 1.14115,-0.22464 2.01797,-0.1964 0.4372,0.0141 0.85054,0.0428 1.23968,0.0863 0.39074,0.0437 0.75252,0.10204 1.085,0.17518 z"
         style="text-align:center;text-anchor:middle;fill:#ffffff;stroke-width:0.264583"
         id="path1775"
         inkscape:original-d="m 148.07278,243.73447 v 0.89917 q -0.40307,-0.20671 -0.83715,-0.31006 -0.43408,-0.10335 -0.89917,-0.10335 -0.70797,0 -1.06453,0.21704 -0.3514,0.21704 -0.3514,0.65112 0,0.33073 0.25321,0.52193 0.25322,0.18603 1.01803,0.35657 l 0.32556,0.0723 q 1.01285,0.21704 1.4366,0.61495 0.42891,0.39274 0.42891,1.10071 0,0.80614 -0.64079,1.2764 -0.63561,0.47025 -1.75182,0.47025 -0.46509,0 -0.97152,-0.093 -0.50126,-0.0879 -1.05936,-0.26872 v -0.98185 q 0.5271,0.27388 1.03869,0.41341 0.5116,0.13436 1.01286,0.13436 0.67179,0 1.03352,-0.22738 0.36174,-0.23254 0.36174,-0.65112 0,-0.38757 -0.26355,-0.59428 -0.25838,-0.2067 -1.14205,-0.3979 l -0.33072,-0.0775 q -0.88367,-0.18603 -1.27641,-0.56844 -0.39274,-0.38757 -0.39274,-1.05936 0,-0.81648 0.57878,-1.2609 0.57877,-0.44442 1.6433,-0.44442 0.5271,0 0.99219,0.0775 0.46508,0.0775 0.85782,0.23254 z" />
    </g>
    <text
       xml:space="preserve"
       style="font-style:normal;font-weight:normal;font-size:10.5833px;line-height:1.25;font-family:sans-serif;letter-spacing:0px;word-spacing:0px;fill:#000000;fill-opacity:1;stroke:none;stroke-width:0.264583"
       x="44.451187"
       y="160.39995"
       id="text1782"><tspan
         sodipodi:role="line"
         id="tspan1780"
         x="44.451187"
         y="160.39995"
         style="stroke-width:0.264583" /></text>
    <path
       style="fill:#784421;stroke:#000000;stroke-width:3.065;stroke-linecap:butt;stroke-linejoin:miter;stroke-miterlimit:4;stroke-dasharray:none;stroke-opacity:1"
       d="m 79.738616,175.94988 32.746784,1.95096 c 0,0 22.14774,-2.8339 29.49872,-1.48512 7.35098,1.34878 11.09721,1.96304 14.01773,6.14649 2.25131,3.22486 2.34109,8.19179 0.72342,11.77665 -2.58396,5.72624 -6.90079,8.64965 -14.86958,11.57997 -7.96879,2.93032 -21.3798,1.8923 -32.06638,1.38268 -7.13256,-0.34014 -15.804299,-1.55949 -16.310586,-2.63395 -0.506286,-1.07447 -4.120899,-3.87055 -3.322325,-6.28711 0.798574,-2.41656 2.905123,-6.22379 3.364124,-8.45317 0.459001,-2.22938 0.124635,-4.55716 0.124635,-4.55716 0,0 -3.050209,-0.96377 -8.387624,-2.97285 -5.337414,-2.00908 -5.518918,-6.44739 -5.518918,-6.44739 z"
       id="path1784"
       sodipodi:nodetypes="cczsszszzzczc"
       inkscape:export-xdpi="96"
       inkscape:export-ydpi="96" />
  </g>
</svg>
